<svg xmlns="http://www.w3.org/2000/svg" width="1536" height="1536"><rect id="backgroundrect" width="100%" height="100%" x="0" y="0" fill="none" stroke="none"/>
    
<g class="currentLayer" style=""><title>Layer 1</title><path style="line-height:normal;font-variant-ligatures:normal;font-variant-position:normal;font-variant-caps:normal;font-variant-numeric:normal;font-variant-alternates:normal;font-feature-settings:normal;text-indent:0;text-align:start;text-decoration-line:none;text-decoration-style:solid;text-decoration-color:#FFF;text-transform:none;text-orientation:mixed;white-space:normal;shape-padding:0;isolation:auto;mix-blend-mode:normal;solid-color:#FFF;solid-opacity:1" d="M411.53408488639104,33.333333015441895 C285.9989728093933,33.333333015441895 183.38755520441046,133.21030014806985 183.38755520441046,256.4774484190345 V852.0329150474072 C182.6257057548355,859.4763373841047 182.2106755376648,867.0091269138456 182.22220415480842,874.6399320746659 v0.031710939466953296 c0.0009607180953025826,7.516453591227531 0.42848027050495174,14.914711862623692 1.1653510496020318,22.18228262591362 v389.34691477525234 c0,117.15078070408106 92.70161045193673,213.0955913428068 209.65750993788242,222.33500597840546 v0.7995000495910645 h18.488059026002883 c125.54471925795077,0 228.14460824579,-99.87024056971075 228.14460824579,-223.13450602799657 v-188.845371088624 l120.0388438537717,-0.11531250715255739 l219.86802185475827,306.26233149671555 c40.80169750750065,56.82792539989948 105.80868742614985,87.2223804101944 171.8820744305849,87.2223804101944 c41.547214749455456,0 83.51618474274873,-12.025172620892524 120.13779781758785,-37.078736674904825 c94.81807241588831,-64.84406652212144 117.83111367076636,-192.45849631273748 51.372478710114954,-285.01984580409527 l-140.5155893370509,-195.7304887031913 c119.58154204040765,-98.02812326794863 195.4369606912136,-245.00544488459826 195.4369606912136,-407.640283097446 C1377.8973597169709,271.8707071863413 1133.2235966414999,33.333333015441895 833.3911648423265,33.333333015441895 H411.53408488639104 zm87.84518048018217,36.98072104382515 h334.0128601938486 c280.26260419785973,0 507.53103754073385,222.11110752701757 507.53103754073385,494.9404994499683 c0,150.28486869680881 -69.70201925039292,286.36419744998216 -180.01071023494006,377.6253984231949 l-99.2806079685688,-138.29332889050244 c65.53730630725622,-59.735722455263144 106.59647626429796,-144.85557148504256 106.59647626429796,-239.33495234537125 c0,-180.77157371282578 -150.3735177129507,-327.2684265496731 -334.8342741653323,-327.2684265496731 h-211.93441182374954 c-3.218405619263649,-35.20490843367577 -15.820144875347614,-69.14714491403103 -37.165379516780376,-98.87567019551992 c-22.28193478435278,-31.034439424991607 -51.86532709300518,-54.17573773539066 -84.91499028950929,-68.79351989209653 zm122.00543379485607,204.6508720690012 h212.00934783518315 c164.9610612720251,0 297.86007754951714,129.99755493843557 297.86007754951714,290.2867445682883 c0,82.18802853542566 -34.96629579663277,156.38874407541752 -91.25476900041103,209.20091141372922 l-13.334767162799835,-18.573001152038575 c-32.58275420218706,-45.389885627925395 -80.63306973874569,-73.91243427211046 -132.3216247022152,-83.55640362030267 c38.317280513048175,-21.072399744570255 64.2259261071682,-61.34625380516053 64.2259261071682,-107.0638191409111 c0,-67.70573857462406 -56.55555283427238,-122.62812479382754 -125.17676422744988,-122.62812479382754 l-230.68858976215125,-0.003843750238418582 v245.48206991416217 l163.3989336490631,-0.1672031353712083 a212.19668786376712,212.2451616025567 0 0 0 -31.4443032592535,17.793680791199208 c-52.848141704499724,36.14086161673069 -83.37688061892986,91.78395100563765 -88.55515115261078,149.98697805333137 l-216.08087112307547,0.21236720067262657 v-395.61799328923223 c35.78867048621178,-2.8799298661351207 71.27375405430794,-14.738860289216042 102.75168244689704,-36.236955372691156 c45.90118915736675,-31.350587882101536 76.5442535251379,-78.24914547860624 86.28209213912487,-132.08567225545647 a203.50122838318347,203.54771575057507 0 0 0 2.328780663013458,-17.03069636887312 zM220.36271253832092,338.9893129120469 c5.495307505130768,12.099164812982082 12.234744943678379,23.76686866170168 20.192372927069666,34.84936153662205 c36.717684884369376,51.14109692215919 93.25690551102161,80.8725050163269 152.4928618311882,86.27585691398383 v407.2213143214583 a18.489019744098186,18.49324333459139 0 0 0 0,14.196891505599023 v404.66329853779075 a18.489019744098186,18.49324333459139 0 1 0 36.97515733391047,0 V892.917925395906 l216.21152878403663,-0.21140626311302194 c3.2952630668878555,34.146916180551045 15.432975482940673,67.95269952744246 37.038564728200434,98.05118576937915 l49.91218720525504,69.52383243739604 l-130.48088883161546,0.12684375786781316 v225.79053744274378 c0,102.7597798114419 -85.08215523809196,186.10862091886997 -191.09259346425534,186.149941233933 h-0.07685744762420656 c-106.03445617854595,0 -191.17233306616546,-83.36517704594135 -191.17233306616546,-186.149941233933 V895.1943864746092 l-0.10567899048328404,-0.9811172483563421 a183.8958542123437,183.93786297172306 0 0 1 -1.0615934953093529,-19.574298089146616 v-0.02882812678813935 a181.8841105207801,181.92565972191096 0 0 1 1.0587113410234452,-19.91927467304468 l0.1085611447691918,-0.9926484990715981 V338.9902738496065 zm419.31501987576485,140.6207196598649 l193.71439314633608,0.003843750238418582 c49.060030254721646,0 88.20256761163473,38.48554926216602 88.20256761163473,85.64548187488317 c0,44.73452621227503 -35.67338431477547,82.37445042198897 -82.00305374264717,85.44080217468739 c-2.008861537277699,0.12876563298702243 -4.041741026937961,0.1893046992421151 -6.409911131858827,0.1893046992421151 h-0.009607180953025823 l-193.4943887025118,0.19891407483816156 V479.6100325719118 z" color="#FFF" font-weight="400" font-family="sans-serif" overflow="visible" fill-rule="evenodd" stroke-width="38.486" id="svg_1" class=""/></g></svg>