<svg xmlns="http://www.w3.org/2000/svg" width="1536" height="1536" fill="#FFFFFF" style=""><rect id="backgroundrect" width="100%" height="100%" x="0" y="0" fill="none" stroke="none"/>
    
<g class="currentLayer" style=""><title>Layer 1</title><path style="line-height:normal;font-variant-ligatures:normal;font-variant-position:normal;font-variant-caps:normal;font-variant-numeric:normal;font-variant-alternates:normal;font-feature-settings:normal;text-indent:0;text-align:start;text-decoration-line:none;text-decoration-style:solid;text-decoration-color:#FFF;text-transform:none;text-orientation:mixed;white-space:normal;shape-padding:0;isolation:auto;mix-blend-mode:normal;solid-color:#FFF;solid-opacity:1" d="M398.96184491892024,14.888888597488403 C271.7935401680009,14.888888597488403 167.8471636601226,117.0214274802804 167.8471636601226,243.07237971872092 V852.0775747954846 C167.07540266533059,859.6890956801176 166.65497296829386,867.3920019820333 166.66665157098933,875.1951374512911 v0.03242708355188372 c0.0009732168912887585,7.686201440691948 0.4340547335147861,15.251538297235966 1.1805120891332628,22.683236263990402 v398.139731850028 c0,119.796455668509 93.90764427423477,217.90803619086742 212.3851221859455,227.3561091712117 v0.8175555610656742 h18.728585855960844 c127.17803691983222,0 231.11273482501508,-102.12566041052342 231.11273482501508,-228.17366473227742 v-193.110161023736 l121.60053091585637,-0.1179166674613953 l222.72847130656243,313.17880766630174 c41.33252137303352,58.11129900276661 107.18524232208729,89.19216726779938 174.11823402047156,89.19216726779938 c42.0877376806736,0 84.60271757662296,-12.296743138432502 121.7007722556591,-37.916104422211646 c96.0516410857439,-66.30847266912461 119.3640784996748,-196.80488327085973 52.04082682788372,-291.4565922421217 l-142.34367573678492,-200.15076871007682 c121.13727967560291,-100.24194164782763 197.97956576108933,-250.53852599412204 197.97956576108933,-416.8462285038829 C1377.8973586608904,258.81327218592173 1130.0404272212522,14.888888597488403 826.3072211851613,14.888888597488403 H398.96184491892024 zm88.9880328887701,37.81587525486946 h338.3583165943623 c283.9087779605388,0 514.1339389806986,227.1271543085575 514.1339389806986,506.11798952221864 c0,153.67882742464542 -70.60883189678192,292.8313040569425 -182.35262213766575,386.1535026025772 l-100.57223354578018,-141.4164766475558 c66.38993667304516,-61.084764300584794 107.98328017294406,-148.12691766500473 107.98328017294406,-244.73997387170792 c0,-184.8540290236473 -152.32985425829887,-334.6592939221859 -339.19041703641415,-334.6592939221859 h-214.69164621829987 c-3.260276585817337,-35.99995857596398 -16.025962548851965,-70.70872964322567 -37.64889543950558,-101.10862915366887 c-22.57181935966015,-31.73530576944351 -52.54008709311485,-55.39921565115452 -86.0197213703394,-70.34711852967739 zm123.59270589232445,209.27260557711125 h214.7675571358204 c167.10717953562735,0 301.735191758275,132.93335506260397 301.735191758275,296.84243602842093 c0,84.04412209421396 -35.42120197534561,159.9205496889353 -92.44197963595391,213.92540074735882 l-13.508250451087953,-18.99244457244873 c-33.0066508680582,-46.41494822949171 -81.68209368586541,-75.58163592606783 -134.04310887098313,-85.44339988142252 c38.8157824921608,-21.54828833967447 65.061495616436,-62.731667089462285 65.061495616436,-109.48169518232345 c0,-69.23477129995823 -57.29133195638657,-125.39749737292529 -126.80529485046863,-125.39749737292529 l-233.6898131531477,-0.003930555582046512 v251.0259148862958 l165.52472887039187,-0.17097916781902323 a214.95733442962168,217.0384007683396 0 0 0 -31.853388851881025,18.1955244281888 c-53.535687972903254,36.9570488601923 -84.46160112738609,93.85675410479307 -89.7072401714325,153.37420936703683 l-218.89205032110215,0.21716319590806973 v-404.5524332821369 c36.25427563428879,-2.9449687698483467 72.20101473093032,-15.07171537935734 104.08846617400647,-37.055312749743464 c46.49835663199425,-32.05859396606684 77.54008259654046,-80.01628526151181 87.4046090066433,-135.06862938255074 a206.14874834656715,208.1445361250639 0 0 0 2.3590777444839475,-17.415309145152566 zM205.303362155153,327.4476511207223 c5.566800618171691,12.372406333386897 12.393917110562324,24.303607802689076 20.455072621107103,35.63638218462467 c37.195376368165014,52.2960420191288 94.47016363739966,82.69888944625855 154.47677072048188,88.22426795572042 v416.4177979454398 a18.729559072852137,18.910885544121268 0 0 0 0,14.51750704228878 v413.80201320558785 a18.729559072852137,18.910885544121268 0 1 0 37.45619849503041,0 V893.8859118828178 l219.0244078183174,-0.2161805570125581 c3.3381339371204377,34.91807315200567 15.633756141662598,69.48730949610471 37.52043080985546,100.26552498131991 l50.56153715312481,71.09392409026623 l-132.17842530727387,0.12970833420753483 v230.88967863947153 c0,105.08045556932687 -86.18906110942365,190.3116054493189 -193.57867897868158,190.3538589218259 h-0.07785735130310065 c-107.41394829154015,0 -193.65945598065855,-85.2478547412157 -193.65945598065855,-190.3538589218259 V896.2137834262847 l-0.10705385804176336,-1.0032743123173713 a186.28831124603747,188.0918241843581 0 0 1 -1.075404664874077,-20.016354301571848 v-0.029479166865348853 a184.25039507567882,186.03417833715676 0 0 1 1.0724850142002107,-20.36912166506052 l0.10997350871562966,-1.0150659790635108 V327.4486337596178 zm424.770244371891,143.79642805248497 l196.23458787500857,0.003930555582046512 c49.698293770551686,0 89.35006957232952,39.35468776524067 89.35006957232952,87.57965684026479 c0,45.744788502752776 -36.13748960733413,84.23475403994321 -83.06990097284317,87.37035475552082 c-2.0349965196847917,0.131673611998558 -4.094323461651802,0.19357986241579073 -6.493303098678591,0.19357986241579073 h-0.009732168912887586 l-196.01172120690347,0.20340625137090695 V471.2440791732073 z" color="#FFF" font-weight="400" font-family="sans-serif" overflow="visible" fill-rule="evenodd" stroke-width="38.486" id="svg_1" class=""/></g></svg>